<svg width="993" height="270" viewBox="0 0 993 270" fill="none" xmlns="http://www.w3.org/2000/svg">
<path d="M280.694 96.6C302.094 96.6 319.094 112.8 319.094 137.2V200H287.294V144C287.294 132.6 279.894 125.4 270.494 125.4C258.694 125.4 250.894 134 250.894 150.8V200H218.894V144C218.894 132.6 211.494 125.4 201.894 125.4C190.294 125.4 182.694 134 182.694 150.8V200H150.694V99.6H182.694V108.8C189.494 101.2 199.294 96.6 212.294 96.6C226.294 96.6 238.294 102.6 245.094 113.6C253.094 103.2 265.094 96.6 280.694 96.6ZM439.328 149.8V158H365.728C368.328 170 376.528 177.4 387.328 177.4C394.728 177.4 403.328 175.6 408.728 165.8L437.128 171.6C428.528 192.8 410.328 203 387.328 203C358.328 203 334.328 181.6 334.328 149.8C334.328 118.2 358.328 96.6 387.528 96.6C415.928 96.6 438.728 117 439.328 149.8ZM387.528 122.6C378.528 122.6 369.328 128.2 366.328 138.4H407.728C404.728 127.6 396.728 122.6 387.528 122.6ZM561.567 46V200H529.567V192C521.767 199 511.367 203 498.367 203C471.767 203 449.367 181.6 449.367 149.8C449.367 118.2 471.767 96.6 498.367 96.6C511.367 96.6 521.767 100.6 529.567 107.6V46H561.567ZM504.967 175.8C517.967 175.8 529.567 165.4 529.567 149.8C529.567 134.4 517.967 123.8 504.967 123.8C490.967 123.8 480.767 134.4 480.767 149.8C480.767 165.4 490.967 175.8 504.967 175.8ZM622.278 99.6H649.878V125H622.278V200H590.478V125H576.078V99.6H590.478V81.8C590.478 58.2 606.678 43.2 630.878 43.2C637.678 43.2 644.278 44.6 650.678 47.4L643.878 72.2C640.878 71.2 637.678 70.6 635.278 70.6C627.678 70.6 622.278 75.2 622.278 83.2V99.6ZM709.069 97C738.869 97 764.069 118.2 764.069 149.8C764.069 181.6 738.869 202.8 709.069 202.8C678.669 202.8 653.469 181.6 653.469 149.8C653.469 118.2 678.669 97 709.069 97ZM709.069 175.8C721.469 175.8 733.269 165.6 733.269 149.8C733.269 134.2 721.469 123.8 709.069 123.8C696.069 123.8 684.269 134.2 684.269 149.8C684.269 165.6 696.069 175.8 709.069 175.8ZM847.177 98.2C849.977 98.2 851.977 98.4 854.377 99L852.977 131H847.177C824.777 131 812.577 142.6 812.577 168.6V200H780.577V99.6H812.577V118.8C819.777 106.8 830.777 98.2 847.177 98.2ZM972.114 46V200H940.114V192C932.314 199 921.914 203 908.914 203C882.314 203 859.914 181.6 859.914 149.8C859.914 118.2 882.314 96.6 908.914 96.6C921.914 96.6 932.314 100.6 940.114 107.6V46H972.114ZM915.514 175.8C928.514 175.8 940.114 165.4 940.114 149.8C940.114 134.4 928.514 123.8 915.514 123.8C901.514 123.8 891.314 134.4 891.314 149.8C891.314 165.4 901.514 175.8 915.514 175.8Z" fill="#2269FF"/>
<path d="M41.0891 122.649L30.8264 107.253C25.9543 99.9448 28.18 91.1058 34.0925 87.2255C34.1236 87.2051 34.1545 87.1847 34.1854 87.1641C40.0985 83.2223 49.0907 84.5985 53.9921 91.9512L64.2207 107.295L41.0891 122.649Z" stroke="#0144D3" stroke-width="31" stroke-miterlimit="10" stroke-linecap="round" stroke-linejoin="round"/>
<mask id="path-3-inside-1_496_3677" fill="white">
<path d="M56.8522 190.112L37.4161 157.419L95.7311 122.903L115.167 155.595C124.818 171.829 119.512 192.683 103.413 202.254C95.363 207.039 86.1524 208.09 77.7478 205.916C69.2762 203.629 61.6777 198.228 56.8522 190.112Z"/>
</mask>
<path d="M37.4161 157.419L-2.82305 89.4351C-20.8763 100.121 -33.938 117.548 -39.1281 137.875C-44.3181 158.201 -41.2102 179.757 -30.4897 197.79L37.4161 157.419ZM95.7311 122.903L163.637 82.5321C141.371 45.08 92.987 32.7258 55.4919 54.9189L95.7311 122.903ZM77.7478 205.916L57.1558 282.185C57.4234 282.257 57.6914 282.328 57.9597 282.397L77.7478 205.916ZM124.758 149.741L105.322 117.048L-30.4897 197.79L-11.0537 230.482L124.758 149.741ZM77.6553 225.403L135.97 190.887L55.4919 54.9189L-2.82305 89.4351L77.6553 225.403ZM27.8252 163.273L47.2613 195.966L183.073 115.225L163.637 82.5321L27.8252 163.273ZM47.2613 195.966C34.7305 174.889 41.4458 147.187 63.042 134.348L143.783 270.16C197.578 238.178 214.906 168.769 183.073 115.225L47.2613 195.966ZM63.042 134.348C73.8066 127.948 86.3563 126.542 97.536 129.434L57.9597 282.397C85.9485 289.639 116.919 286.13 143.783 270.16L63.042 134.348ZM98.3398 129.647C108.675 132.437 118.547 139.294 124.758 149.741L-11.0537 230.482C4.80801 257.163 29.8771 274.82 57.1558 282.185L98.3398 129.647Z" fill="#FF6C6C" mask="url(#path-3-inside-1_496_3677)"/>
</svg>
